<mxfile host="app.diagrams.net" agent="Mozilla/5.0 (Windows NT 10.0; Win64; x64) AppleWebKit/537.36 (KHTML, like Gecko) Chrome/133.0.0.0 Safari/537.36" version="26.0.11">
  <diagram id="C5RBs43oDa-KdzZeNtuy" name="Page-1">
    <mxGraphModel dx="989" dy="532" grid="1" gridSize="10" guides="1" tooltips="1" connect="1" arrows="1" fold="1" page="1" pageScale="1" pageWidth="827" pageHeight="1169" math="1" shadow="0">
      <root>
        <mxCell id="WIyWlLk6GJQsqaUBKTNV-0" />
        <mxCell id="WIyWlLk6GJQsqaUBKTNV-1" parent="WIyWlLk6GJQsqaUBKTNV-0" />
        <mxCell id="EcF2EK_fxwHNhDPUkEfl-4" value="" style="rounded=1;whiteSpace=wrap;html=1;fillColor=none;dashed=1;" vertex="1" parent="WIyWlLk6GJQsqaUBKTNV-1">
          <mxGeometry x="430" y="380" width="320" height="70" as="geometry" />
        </mxCell>
        <mxCell id="bKT88K2eKm8Ra163NtKh-47" value="" style="group" parent="WIyWlLk6GJQsqaUBKTNV-1" vertex="1" connectable="0">
          <mxGeometry x="160" width="474" height="270" as="geometry" />
        </mxCell>
        <mxCell id="bKT88K2eKm8Ra163NtKh-16" value="" style="group" parent="bKT88K2eKm8Ra163NtKh-47" vertex="1" connectable="0">
          <mxGeometry y="72" width="160" height="100" as="geometry" />
        </mxCell>
        <mxCell id="WIyWlLk6GJQsqaUBKTNV-3" value="Datos de entrada" style="rounded=0;whiteSpace=wrap;html=1;fontSize=12;glass=0;strokeWidth=1;shadow=0;" parent="bKT88K2eKm8Ra163NtKh-16" vertex="1">
          <mxGeometry x="15" width="130" height="50" as="geometry" />
        </mxCell>
        <mxCell id="bKT88K2eKm8Ra163NtKh-10" value="&lt;div&gt;\[\begin{align} \mathbb{X} &amp;amp;\in \mathbb{R}^{N\times P} \\ \mathbb{Y} &amp;amp;\in [0, 10]^{N \times M \times R} \end{align}\]&lt;/div&gt;&lt;div&gt;&lt;br&gt;&lt;/div&gt;" style="text;html=1;align=center;verticalAlign=middle;whiteSpace=wrap;rounded=0;" parent="bKT88K2eKm8Ra163NtKh-16" vertex="1">
          <mxGeometry x="60" y="70" width="60" height="30" as="geometry" />
        </mxCell>
        <mxCell id="bKT88K2eKm8Ra163NtKh-23" value="" style="group" parent="bKT88K2eKm8Ra163NtKh-47" vertex="1" connectable="0">
          <mxGeometry x="190" y="30" width="124" height="240" as="geometry" />
        </mxCell>
        <mxCell id="bKT88K2eKm8Ra163NtKh-9" value="&lt;div&gt;&lt;br&gt;&lt;/div&gt;" style="text;html=1;align=center;verticalAlign=middle;whiteSpace=wrap;rounded=0;" parent="bKT88K2eKm8Ra163NtKh-23" vertex="1">
          <mxGeometry x="60" y="210" width="60" height="30" as="geometry" />
        </mxCell>
        <mxCell id="bKT88K2eKm8Ra163NtKh-14" value="&lt;div&gt;\[\begin{align} \mathbb{X}_m &amp;amp;\in \mathbb{R}^{N_m \times P} \\ \mathbb{Y}_m &amp;amp;\in [0, 10]^{N_m&amp;nbsp; \times R} \\ m &amp;amp; \in \{1, ...,M\} \end{align} \]&lt;/div&gt;&lt;div&gt;&lt;br&gt;&lt;/div&gt;" style="text;html=1;align=center;verticalAlign=middle;whiteSpace=wrap;rounded=0;" parent="bKT88K2eKm8Ra163NtKh-23" vertex="1">
          <mxGeometry x="40" y="190" width="60" height="30" as="geometry" />
        </mxCell>
        <mxCell id="bKT88K2eKm8Ra163NtKh-18" value="Datos variable sensorial 1&amp;nbsp;" style="rounded=0;whiteSpace=wrap;html=1;glass=0;" parent="bKT88K2eKm8Ra163NtKh-23" vertex="1">
          <mxGeometry width="120" height="50" as="geometry" />
        </mxCell>
        <mxCell id="bKT88K2eKm8Ra163NtKh-20" value="Datos variable sensorial M&amp;nbsp;" style="rounded=0;whiteSpace=wrap;html=1;glass=0;" parent="bKT88K2eKm8Ra163NtKh-23" vertex="1">
          <mxGeometry y="100" width="120" height="50" as="geometry" />
        </mxCell>
        <mxCell id="bKT88K2eKm8Ra163NtKh-22" value="$$ \vdots $$" style="text;html=1;align=center;verticalAlign=middle;whiteSpace=wrap;rounded=0;fontSize=14;" parent="bKT88K2eKm8Ra163NtKh-23" vertex="1">
          <mxGeometry x="30" y="60" width="60" height="30" as="geometry" />
        </mxCell>
        <mxCell id="bKT88K2eKm8Ra163NtKh-37" style="edgeStyle=orthogonalEdgeStyle;rounded=0;orthogonalLoop=1;jettySize=auto;html=1;entryX=0.5;entryY=0;entryDx=0;entryDy=0;" parent="bKT88K2eKm8Ra163NtKh-47" source="bKT88K2eKm8Ra163NtKh-24" target="WIyWlLk6GJQsqaUBKTNV-3" edge="1">
          <mxGeometry relative="1" as="geometry" />
        </mxCell>
        <mxCell id="bKT88K2eKm8Ra163NtKh-24" value="Datos físicoquímicos y sensoriales" style="rounded=0;whiteSpace=wrap;html=1;" parent="bKT88K2eKm8Ra163NtKh-47" vertex="1">
          <mxGeometry x="20" width="120" height="48" as="geometry" />
        </mxCell>
        <mxCell id="bKT88K2eKm8Ra163NtKh-25" value="" style="group" parent="bKT88K2eKm8Ra163NtKh-47" vertex="1" connectable="0">
          <mxGeometry x="350" y="30" width="124" height="240" as="geometry" />
        </mxCell>
        <mxCell id="bKT88K2eKm8Ra163NtKh-28" value="Modelo VS 1&amp;nbsp;" style="rounded=0;whiteSpace=wrap;html=1;glass=0;" parent="bKT88K2eKm8Ra163NtKh-25" vertex="1">
          <mxGeometry width="100" height="50" as="geometry" />
        </mxCell>
        <mxCell id="bKT88K2eKm8Ra163NtKh-29" value="Modelo VS M" style="rounded=0;whiteSpace=wrap;html=1;glass=0;" parent="bKT88K2eKm8Ra163NtKh-25" vertex="1">
          <mxGeometry y="100" width="100" height="50" as="geometry" />
        </mxCell>
        <mxCell id="bKT88K2eKm8Ra163NtKh-30" value="$$ \vdots $$" style="text;html=1;align=center;verticalAlign=middle;whiteSpace=wrap;rounded=0;fontSize=14;" parent="bKT88K2eKm8Ra163NtKh-25" vertex="1">
          <mxGeometry x="30" y="60" width="60" height="30" as="geometry" />
        </mxCell>
        <mxCell id="bKT88K2eKm8Ra163NtKh-38" style="edgeStyle=orthogonalEdgeStyle;rounded=0;orthogonalLoop=1;jettySize=auto;html=1;entryX=0;entryY=0.5;entryDx=0;entryDy=0;" parent="bKT88K2eKm8Ra163NtKh-47" source="WIyWlLk6GJQsqaUBKTNV-3" target="bKT88K2eKm8Ra163NtKh-18" edge="1">
          <mxGeometry relative="1" as="geometry">
            <Array as="points">
              <mxPoint x="168" y="97" />
              <mxPoint x="168" y="55" />
            </Array>
          </mxGeometry>
        </mxCell>
        <mxCell id="bKT88K2eKm8Ra163NtKh-39" style="edgeStyle=orthogonalEdgeStyle;rounded=0;orthogonalLoop=1;jettySize=auto;html=1;exitX=1;exitY=0.5;exitDx=0;exitDy=0;entryX=0;entryY=0.5;entryDx=0;entryDy=0;" parent="bKT88K2eKm8Ra163NtKh-47" source="WIyWlLk6GJQsqaUBKTNV-3" target="bKT88K2eKm8Ra163NtKh-20" edge="1">
          <mxGeometry relative="1" as="geometry">
            <Array as="points">
              <mxPoint x="168" y="97" />
              <mxPoint x="168" y="155" />
            </Array>
          </mxGeometry>
        </mxCell>
        <mxCell id="bKT88K2eKm8Ra163NtKh-43" style="edgeStyle=orthogonalEdgeStyle;rounded=0;orthogonalLoop=1;jettySize=auto;html=1;entryX=0;entryY=0.5;entryDx=0;entryDy=0;" parent="bKT88K2eKm8Ra163NtKh-47" source="bKT88K2eKm8Ra163NtKh-18" target="bKT88K2eKm8Ra163NtKh-28" edge="1">
          <mxGeometry relative="1" as="geometry" />
        </mxCell>
        <mxCell id="bKT88K2eKm8Ra163NtKh-46" style="edgeStyle=orthogonalEdgeStyle;rounded=0;orthogonalLoop=1;jettySize=auto;html=1;" parent="bKT88K2eKm8Ra163NtKh-47" source="bKT88K2eKm8Ra163NtKh-20" target="bKT88K2eKm8Ra163NtKh-29" edge="1">
          <mxGeometry relative="1" as="geometry" />
        </mxCell>
        <mxCell id="bKT88K2eKm8Ra163NtKh-33" value="Estimaciones modelo VS 1&amp;nbsp;" style="rounded=0;whiteSpace=wrap;html=1;glass=0;" parent="WIyWlLk6GJQsqaUBKTNV-1" vertex="1">
          <mxGeometry x="650" y="30" width="120" height="50" as="geometry" />
        </mxCell>
        <mxCell id="bKT88K2eKm8Ra163NtKh-34" value="Estimaciones modelo VS M&amp;nbsp;" style="rounded=0;whiteSpace=wrap;html=1;glass=0;" parent="WIyWlLk6GJQsqaUBKTNV-1" vertex="1">
          <mxGeometry x="650" y="130" width="120" height="50" as="geometry" />
        </mxCell>
        <mxCell id="bKT88K2eKm8Ra163NtKh-35" value="$$ \vdots $$" style="text;html=1;align=center;verticalAlign=middle;whiteSpace=wrap;rounded=0;fontSize=14;" parent="WIyWlLk6GJQsqaUBKTNV-1" vertex="1">
          <mxGeometry x="680" y="90" width="60" height="30" as="geometry" />
        </mxCell>
        <mxCell id="bKT88K2eKm8Ra163NtKh-44" style="edgeStyle=orthogonalEdgeStyle;rounded=0;orthogonalLoop=1;jettySize=auto;html=1;entryX=0;entryY=0.5;entryDx=0;entryDy=0;" parent="WIyWlLk6GJQsqaUBKTNV-1" source="bKT88K2eKm8Ra163NtKh-28" target="bKT88K2eKm8Ra163NtKh-33" edge="1">
          <mxGeometry relative="1" as="geometry" />
        </mxCell>
        <mxCell id="bKT88K2eKm8Ra163NtKh-45" style="edgeStyle=orthogonalEdgeStyle;rounded=0;orthogonalLoop=1;jettySize=auto;html=1;" parent="WIyWlLk6GJQsqaUBKTNV-1" source="bKT88K2eKm8Ra163NtKh-29" target="bKT88K2eKm8Ra163NtKh-34" edge="1">
          <mxGeometry relative="1" as="geometry" />
        </mxCell>
        <mxCell id="bKT88K2eKm8Ra163NtKh-49" value="&lt;span style=&quot;text-wrap-mode: nowrap;&quot;&gt;&amp;nbsp;\[ \begin{align} \mathbb{\hat{Y}}_m &amp;amp;\in [0, 10]^{N_m} \\ \lambda_m &amp;amp; \in \mathbb{R}^{N_m \times R} \end{align}\]&lt;/span&gt;" style="text;html=1;align=center;verticalAlign=middle;whiteSpace=wrap;rounded=0;" parent="WIyWlLk6GJQsqaUBKTNV-1" vertex="1">
          <mxGeometry x="680" y="190" width="60" height="30" as="geometry" />
        </mxCell>
        <mxCell id="EcF2EK_fxwHNhDPUkEfl-6" style="edgeStyle=orthogonalEdgeStyle;rounded=0;orthogonalLoop=1;jettySize=auto;html=1;entryX=0;entryY=0.5;entryDx=0;entryDy=0;" edge="1" parent="WIyWlLk6GJQsqaUBKTNV-1" source="EcF2EK_fxwHNhDPUkEfl-0" target="EcF2EK_fxwHNhDPUkEfl-1">
          <mxGeometry relative="1" as="geometry" />
        </mxCell>
        <mxCell id="EcF2EK_fxwHNhDPUkEfl-0" value="Datos sensoriales estimados" style="rounded=0;whiteSpace=wrap;html=1;fontSize=12;glass=0;strokeWidth=1;shadow=0;" vertex="1" parent="WIyWlLk6GJQsqaUBKTNV-1">
          <mxGeometry x="280" y="390" width="130" height="50" as="geometry" />
        </mxCell>
        <mxCell id="EcF2EK_fxwHNhDPUkEfl-7" style="edgeStyle=orthogonalEdgeStyle;rounded=0;orthogonalLoop=1;jettySize=auto;html=1;entryX=0;entryY=0.5;entryDx=0;entryDy=0;" edge="1" parent="WIyWlLk6GJQsqaUBKTNV-1" source="EcF2EK_fxwHNhDPUkEfl-1" target="EcF2EK_fxwHNhDPUkEfl-2">
          <mxGeometry relative="1" as="geometry" />
        </mxCell>
        <mxCell id="EcF2EK_fxwHNhDPUkEfl-1" value="Modelo variacional" style="rounded=0;whiteSpace=wrap;html=1;fontSize=12;glass=0;strokeWidth=1;shadow=0;" vertex="1" parent="WIyWlLk6GJQsqaUBKTNV-1">
          <mxGeometry x="450" y="390" width="130" height="50" as="geometry" />
        </mxCell>
        <mxCell id="EcF2EK_fxwHNhDPUkEfl-2" value="Datos de entrada" style="rounded=0;whiteSpace=wrap;html=1;fontSize=12;glass=0;strokeWidth=1;shadow=0;" vertex="1" parent="WIyWlLk6GJQsqaUBKTNV-1">
          <mxGeometry x="610" y="390" width="130" height="50" as="geometry" />
        </mxCell>
        <mxCell id="EcF2EK_fxwHNhDPUkEfl-5" style="edgeStyle=orthogonalEdgeStyle;rounded=0;orthogonalLoop=1;jettySize=auto;html=1;entryX=0.5;entryY=1;entryDx=0;entryDy=0;dashed=1;" edge="1" parent="WIyWlLk6GJQsqaUBKTNV-1" source="EcF2EK_fxwHNhDPUkEfl-3" target="EcF2EK_fxwHNhDPUkEfl-4">
          <mxGeometry relative="1" as="geometry">
            <Array as="points">
              <mxPoint x="345" y="470" />
              <mxPoint x="590" y="470" />
            </Array>
          </mxGeometry>
        </mxCell>
        <mxCell id="EcF2EK_fxwHNhDPUkEfl-3" value="Datos ingredientes" style="rounded=0;whiteSpace=wrap;html=1;fontSize=12;glass=0;strokeWidth=1;shadow=0;" vertex="1" parent="WIyWlLk6GJQsqaUBKTNV-1">
          <mxGeometry x="280" y="480" width="130" height="50" as="geometry" />
        </mxCell>
      </root>
    </mxGraphModel>
  </diagram>
</mxfile>
